<svg xmlns="http://www.w3.org/2000/svg" viewBox="0 0 1600 900" role="img" aria-labelledby="title desc">
  <title id="title">Webgpu Compute Lab</title><desc id="desc">PERSONAL PROJECT / VERIFIED GRAPHICS SYSTEMS</desc>
  <defs>
    <pattern id="grid" width="40" height="40" patternUnits="userSpaceOnUse"><path d="M40 0H0V40" fill="none" stroke="#31433f" stroke-opacity=".34"/></pattern>
    <linearGradient id="fade" x1="0" y1="0" x2="1" y2="1"><stop stop-color="#57e3c2" stop-opacity=".16"/><stop offset="1" stop-color="#f0b84b" stop-opacity=".03"/></linearGradient>
    <filter id="soft"><feGaussianBlur stdDeviation="18"/></filter>
  </defs>
  <rect width="1600" height="900" fill="#080b0d"/><rect width="1600" height="900" fill="url(#grid)"/>
  <rect x="52" y="52" width="1496" height="796" rx="4" fill="url(#fade)" stroke="#31433f"/>
  <path d="M52 150h1496M1080 52v98" stroke="#31433f"/>
  <text x="92" y="112" fill="#57e3c2" font-family="monospace" font-size="24" letter-spacing="4">GRAPHICS SYSTEMS / VERIFIED STUDY</text>
  <text x="1108" y="104" fill="#f0b84b" font-family="monospace" font-size="20">1600×900 / LOCAL ASSET</text>

    <g fill="#57e3c2" opacity=".75"><circle cx="808.0" cy="395.0" r="4"/><circle cx="775.1" cy="402.9" r="2"/><circle cx="791.9" cy="382.1" r="2"/><circle cx="805.0" cy="406.3" r="2"/><circle cx="763.6" cy="392.4" r="2"/><circle cx="814.4" cy="385.9" r="2"/><circle cx="782.1" cy="412.5" r="2"/><circle cx="774.4" cy="377.9" r="4"/><circle cx="823.5" cy="401.9" r="2"/><circle cx="755.2" cy="403.5" r="2"/><circle cx="806.6" cy="373.9" r="2"/><circle cx="803.1" cy="418.3" r="2"/><circle cx="751.3" cy="382.3" r="2"/><circle cx="835.4" cy="388.9" r="2"/><circle cx="762.5" cy="418.4" r="4"/><circle cx="782.7" cy="365.7" r="2"/><circle cx="831.2" cy="414.5" r="2"/><circle cx="734.7" cy="396.9" r="2"/><circle cx="830.1" cy="371.0" r="2"/><circle cx="788.3" cy="429.7" r="2"/><circle cx="749.4" cy="367.8" r="2"/><circle cx="853.8" cy="399.2" r="4"/><circle cx="736.3" cy="417.7" r="2"/><circle cx="803.6" cy="356.0" r="2"/><circle cx="826.6" cy="430.1" r="2"/><circle cx="719.9" cy="383.1" r="2"/><circle cx="857.5" cy="375.7" r="2"/><circle cx="762.0" cy="436.8" r="2"/><circle cx="761.0" cy="352.0" r="4"/><circle cx="863.4" cy="415.9" r="2"/><circle cx="709.4" cy="408.8" r="2"/><circle cx="834.4" cy="352.2" r="2"/><circle cx="807.7" cy="445.2" r="2"/><circle cx="716.6" cy="364.2" r="2"/><circle cx="882.2" cy="388.8" r="2"/><circle cx="727.9" cy="436.7" r="4"/><circle cx="787.1" cy="338.6" r="2"/><circle cx="859.4" cy="436.3" r="2"/><circle cx="688.6" cy="391.7" r="2"/><circle cx="870.3" cy="356.8" r="2"/><circle cx="775.1" cy="455.9" r="2"/><circle cx="728.8" cy="343.2" r="2"/><circle cx="897.6" cy="409.4" r="4"/><circle cx="692.0" cy="427.2" r="2"/><circle cx="825.3" cy="331.6" r="2"/><circle cx="838.8" cy="456.7" r="2"/><circle cx="680.1" cy="368.2" r="2"/><circle cx="904.3" cy="371.2" r="2"/><circle cx="732.5" cy="458.5" r="2"/><circle cx="757.8" cy="324.5" r="4"/><circle cx="897.8" cy="435.0" r="2"/><circle cx="661.7" cy="408.0" r="2"/><circle cx="870.7" cy="334.1" r="2"/><circle cx="801.8" cy="472.8" r="2"/><circle cx="689.0" cy="341.5" r="2"/><circle cx="929.0" cy="394.8" r="2"/><circle cx="686.2" cy="450.5" r="4"/><circle cx="802.0" cy="312.1" r="2"/><circle cx="879.1" cy="461.8" r="2"/><circle cx="644.3" cy="380.6" r="2"/><circle cx="916.0" cy="347.8" r="2"/><circle cx="751.6" cy="480.4" r="2"/><circle cx="717.7" cy="315.9" r="2"/><circle cx="937.6" cy="425.3" r="4"/><circle cx="643.9" cy="431.0" r="2"/><circle cx="856.6" cy="310.0" r="2"/><circle cx="840.8" cy="485.0" r="2"/><circle cx="645.8" cy="348.0" r="2"/><circle cx="953.2" cy="372.8" r="2"/><circle cx="694.5" cy="476.4" r="2"/><circle cx="765.1" cy="296.3" r="4"/><circle cx="925.1" cy="458.8" r="2"/><circle cx="613.9" cy="401.1" r="2"/><circle cx="914.2" cy="320.5" r="2"/><circle cx="785.3" cy="499.8" r="2"/><circle cx="669.8" cy="315.0" r="2"/><circle cx="974.0" cy="407.0" r="2"/><circle cx="638.7" cy="459.1" r="4"/><circle cx="827.2" cy="287.2" r="2"/><circle cx="889.5" cy="490.1" r="2"/><circle cx="603.7" cy="363.6" r="2"/><circle cx="965.8" cy="344.5" r="2"/><circle cx="718.5" cy="502.3" r="2"/><circle cx="716.7" cy="286.7" r="2"/><circle cx="972.3" cy="446.6" r="4"/><circle cx="593.5" cy="428.8" r="2"/><circle cx="896.5" cy="291.9" r="2"/><circle cx="832.2" cy="514.0" r="2"/><circle cx="618.4" cy="323.2" r="2"/><circle cx="1002.3" cy="380.5" r="2"/><circle cx="649.1" cy="489.9" r="2"/><circle cx="783.1" cy="268.5" r="4"/><circle cx="944.1" cy="486.4" r="2"/><circle cx="567.7" cy="388.0" r="2"/><circle cx="963.6" cy="312.1" r="2"/><circle cx="758.4" cy="525.4" r="2"/><circle cx="660.0" cy="285.5" r="2"/><circle cx="1015.6" cy="425.0" r="2"/><circle cx="587.0" cy="462.0" r="4"/><circle cx="862.1" cy="264.8" r="2"/><circle cx="889.6" cy="520.4" r="2"/><circle cx="568.4" cy="341.2" r="2"/><circle cx="1018.0" cy="347.3" r="2"/><circle cx="676.6" cy="520.7" r="2"/><circle cx="726.4" cy="256.7" r="2"/><circle cx="1000.0" cy="472.6" r="4"/><circle cx="542.6" cy="420.4" r="2"/><circle cx="944.0" cy="278.3" r="2"/><circle cx="812.8" cy="542.7" r="2"/><circle cx="599.4" cy="294.3" r="2"/><circle cx="1050.0" cy="394.4" r="2"/><circle cx="597.5" cy="498.3" r="2"/><circle cx="811.6" cy="242.2" r="4"/><circle cx="953.6" cy="517.1" r="2"/><circle cx="525.0" cy="369.0" r="2"/><circle cx="1017.4" cy="309.5" r="2"/><circle cx="721.6" cy="548.4" r="2"/><circle cx="660.5" cy="254.0" r="2"/><circle cx="1051.8" cy="448.5" r="2"/><circle cx="532.7" cy="458.8" r="4"/><circle cx="906.1" cy="245.9" r="2"/><circle cx="878.9" cy="551.6" r="2"/><circle cx="540.0" cy="313.9" r="2"/><circle cx="1070.8" cy="356.4" r="2"/><circle cx="626.9" cy="534.6" r="2"/><circle cx="747.1" cy="226.9" r="2"/><circle cx="1019.3" cy="502.8" r="4"/><circle cx="493.2" cy="405.6" r="2"/><circle cx="997.9" cy="269.9" r="2"/><circle cx="782.7" cy="570.0" r="2"/><circle cx="589.9" cy="262.3" r="2"/><circle cx="1094.4" cy="414.4" r="2"/><circle cx="541.3" cy="500.8" r="2"/><circle cx="850.3" cy="218.3" r="4"/><circle cx="952.8" cy="549.9" r="2"/><circle cx="487.4" cy="344.3" r="2"/><circle cx="1074.0" cy="313.1" r="2"/><circle cx="675.5" cy="567.9" r="2"/><circle cx="671.9" cy="221.5" r="2"/><circle cx="1081.3" cy="477.1" r="2"/><circle cx="477.7" cy="449.1" r="4"/><circle cx="958.1" cy="231.5" r="2"/><circle cx="857.2" cy="582.6" r="2"/><circle cx="520.0" cy="282.4" r="2"/><circle cx="1122.4" cy="371.9" r="2"/><circle cx="570.6" cy="543.4" r="2"/><circle cx="778.6" cy="198.4" r="2"/><circle cx="1029.2" cy="536.3" r="4"/><circle cx="446.9" cy="384.6" r="2"/><circle cx="1056.6" cy="267.2" r="2"/><circle cx="742.3" cy="594.9" r="2"/><circle cx="590.8" cy="227.9" r="2"/><circle cx="1133.7" cy="440.3" r="2"/><circle cx="482.2" cy="497.1" r="2"/><circle cx="898.5" cy="197.8" r="4"/><circle cx="940.9" cy="583.9" r="2"/><circle cx="456.5" cy="314.5" r="2"/><circle cx="1131.6" cy="323.1" r="2"/><circle cx="621.1" cy="583.1" r="2"/><circle cx="694.6" cy="189.0" r="2"/><circle cx="1102.4" cy="510.0" r="2"/><circle cx="423.6" cy="433.0" r="4"/><circle cx="1017.0" cy="222.3" r="2"/><circle cx="824.3" cy="612.5" r="2"/><circle cx="509.5" cy="247.4" r="2"/><circle cx="1171.0" cy="393.7" r="2"/><circle cx="509.2" cy="546.2" r="2"/><circle cx="820.8" cy="172.2" r="2"/><circle cx="1028.5" cy="572.2" r="4"/><circle cx="405.5" cy="357.7" r="2"/><circle cx="1118.5" cy="271.0" r="2"/><circle cx="692.0" cy="616.5" r="2"/><circle cx="602.9" cy="192.3" r="2"/><circle cx="1166.2" cy="471.4" r="2"/><circle cx="421.8" cy="486.8" r="2"/><circle cx="955.2" cy="181.8" r="4"/><circle cx="917.5" cy="618.1" r="2"/><circle cx="434.0" cy="280.1" r="2"/><circle cx="1188.4" cy="339.8" r="2"/><circle cx="559.7" cy="593.0" r="2"/></g>
    <circle cx="790" cy="395" r="52" fill="#f0b84b" opacity=".22"/><path d="M260 250h240v90H260zM1100 250h240v90h-240z" fill="#10191a" stroke="#31433f"/>
    <text x="380" y="304" fill="#e8e6dc" font-family="monospace" font-size="22" text-anchor="middle">STATE A / READ</text><text x="1220" y="304" fill="#e8e6dc" font-family="monospace" font-size="22" text-anchor="middle">STATE B / WRITE</text>
    <path d="M500 295h190M1090 295H900" stroke="#f0b84b" stroke-width="4"/><text x="690" y="278" fill="#8fa29f" font-family="monospace" font-size="17">COMPUTE</text><text x="1120" y="700" fill="#f0b84b" font-family="monospace" font-size="18">COMPUTE / PATHS</text>
  <text x="92" y="792" fill="#e8e6dc" font-family="Arial Narrow, sans-serif" font-weight="700" font-size="64">Webgpu Compute Lab</text>
  <text x="94" y="828" fill="#8fa29f" font-family="monospace" font-size="20">PERSONAL PROJECT / VERIFIED GRAPHICS SYSTEMS</text>
  </svg>