<svg xmlns="http://www.w3.org/2000/svg" width="1200" height="675"><rect width="1200" height="675" fill="#080b0d"/><g stroke="#57e3c2" fill="#10191c"><circle cx="240" cy="220" r="28"/><circle cx="240" cy="340" r="28"/><circle cx="470" cy="180" r="24"/><circle cx="470" cy="280" r="24"/><circle cx="470" cy="380" r="24"/><circle cx="700" cy="220" r="28"/><circle cx="700" cy="340" r="28"/><circle cx="940" cy="280" r="38"/></g><g stroke="#f0b84b" opacity=".55"><path d="M268 220l178-40M268 220l178 60M268 340l178-160M268 340l178 40M494 180l178 40M494 280l178-60M494 280l178 60M494 380l178-40M728 220l174 60M728 340l174-60"/></g><text x="70" y="600" fill="#e9e7de" font-family="monospace" font-size="42">NEURAL GRAPHICS LAB</text></svg>
