<svg xmlns="http://www.w3.org/2000/svg" width="1200" height="675" viewBox="0 0 1200 675"><rect width="1200" height="675" fill="#0a0f11"/><g stroke="#233136"><path d="M0 96h1200M0 192h1200M0 288h1200M0 384h1200M0 480h1200M0 576h1200M144 0v675M288 0v675M432 0v675M576 0v675M720 0v675M864 0v675M1008 0v675"/></g><g fill="#10191c" stroke="#57e3c2" stroke-width="2"><rect x="120" y="150" width="220" height="100"/><rect x="490" y="90" width="220" height="100"/><rect x="490" y="300" width="220" height="100"/><rect x="850" y="200" width="220" height="100"/></g><g stroke="#f0b84b" stroke-width="3"><path d="M340 200h90l60-60M340 200h90l60 150M710 140h70l70 110M710 350h70l70-100"/></g><text x="80" y="610" fill="#e9e7de" font-family="monospace" font-size="42">ENGINE SYSTEMS EXPLORER</text></svg>
